# AST/ASF file generated using VICON BodyLanguage
# -----------------------------------------------
:version 1.10
:name VICON
:units
  mass 1.0
  length 0.45
  angle deg
:documentation
   .ast/.asf automatically generated from VICON data using
   VICON BodyBuilder and BodyLanguage model FoxedUp or BRILLIANT.MOD
:root
   order TX TY TZ RX RY RZ
   axis XYZ
   position 0 0 0  
   orientation 0 0 0 
:bonedata
  begin
     id 1 
     name lhipjoint
     direction 0.682418 -0.694059 0.22932 
     length 2.25561 
     axis 0 0 0  XYZ
  end
  begin
     id 2 
     name lfemur
     direction 0.34202 -0.939693 0  
     length 6.96448  
     axis 0 0 20  XYZ
    dof rx ry rz
    limits (-160.0 20.0)
           (-70.0 70.0)
           (-60.0 70.0)
  end
  begin
     id 3 
     name ltibia
     direction 0.34202 -0.939693 0   
     length 6.88553   
     axis 0 0 20   XYZ
    dof rx
    limits (-10.0 170.0)
  end
  begin
     id 4 
     name lfoot
     direction 0.0723587 -0.198804 0.977364   
     length 1.88518   
     axis -90 7.62852e-016 20   XYZ
    dof rx rz
    limits (-45.0 90.0)
           (-70.0 20.0)
  end
  begin
     id 5 
     name ltoes
     direction 1.53558e-011 -4.21962e-011 1   
     length 0.952124   
     axis -90 7.62852e-016 20   XYZ
    dof rx
    limits (-90.0 20.0)
  end
  begin
     id 6 
     name rhipjoint
     direction -0.657603 -0.71533 0.236348   
     length 2.18854  
     axis 0 0 0  XYZ 
  end
  begin
     id 7 
     name rfemur
     direction -0.34202 -0.939693 0   
     length 6.86686   
     axis 0 0 -20   XYZ
    dof rx ry rz
    limits (-160.0 20.0)
           (-70.0 70.0)
           (-70.0 60.0)
  end
  begin
     id 8 
     name rtibia
     direction -0.34202 -0.939693 0   
     length 6.59503   
     axis 0 0 -20   XYZ
    dof rx
    limits (-10.0 170.0)
 end
 begin
     id 9 
     name rfoot
     direction -0.101977 -0.280179 0.954516   
     length 1.93723  
     axis -90 -7.62852e-016 -20   XYZ
    dof rx rz
    limits (-45.0 90.0)
           (-20.0 70.0)
  end
  begin
     id 10 
     name rtoes
     direction -1.53564e-011 -4.21897e-011 1   
     length 0.970315   
     axis -90 -7.62852e-016 -20   XYZ
    dof rx
    limits (-90.0 20.0)
  end
  begin
     id 11 
     name lowerback
     direction -0.0339559 0.999421 -0.00235966   
     length 1.88543   
     axis 0 0 0   XYZ
    dof rx ry rz
    limits (-20.0 45.0)
           (-30.0 30.0)
           (-30.0 30.0)
  end
  begin
     id 12 
     name upperback
     direction 0.00401003 0.999739 0.0224689   
     length 1.8856   
     axis 0 0 0   XYZ
    dof rx ry rz
    limits (-20.0 45.0)
           (-30.0 30.0)
           (-30.0 30.0)
  end
  begin
     id 13 
     name thorax
     direction 0.0198619 0.999546 0.0226536   
     length 1.88352   
     axis 0 0 0   XYZ
    dof rx ry rz
    limits (-20.0 45.0)
           (-30.0 30.0)
           (-30.0 30.0)
  end
  begin
     id 14 
     name lowerneck
     direction -0.0461848 0.998632 0.0245198   
     length 1.34895   
     axis 0 0 0   XYZ
    dof rx ry rz
    limits (-20.0 45.0)
           (-30.0 30.0)
           (-30.0 30.0)
  end
  begin
     id 15 
     name upperneck
     direction -0.0180627 0.994724 -0.100984   
     length 1.35214   
     axis 0 0 0   XYZ
    dof rx ry rz
    limits (-20.0 45.0)
           (-30.0 30.0)
           (-30.0 30.0)
  end
  begin
     id 16
     name head
     direction -0.00374772 0.999293 -0.037403  
     length 1.3568  
     axis 0 0 0   XYZ
    dof rx ry rz
    limits (-20.0 45.0)
           (-30.0 30.0)
           (-30.0 30.0)
  end
  begin
     id 17 
     name lclavicle
     direction 0.971773 0.191119 0.138311  
     length 2.84954  
     axis 0 0 0   XYZ
    dof ry rz
    limits (-20.0 10.0)
           (0.0 20.0)
  end
  begin
     id 18 
     name lhumerus
     direction 1 -4.4897e-011 -2.43761e-027   
     length 4.40919   
     axis 180 -30 -90   XYZ
    dof rx ry rz
    limits (-60.0 90.0)
           (-90.0 90.0)
           (-90.0 90.0)
  end
  begin
     id 19
     name lradius
     direction 1 -4.4896e-011 -9.1621e-027   
     length 3.03857   
     axis 180 -30 -90   XYZ
    dof rx
    limits (-10.0 170.0)
  end
  begin
     id 20
     name lwrist
     direction 1 -4.4896e-011 -1.41363e-026   
     length 1.51928   
     axis 1.07133e-014 90 90   XYZ
    dof ry
    limits (-180.0 0.0)
 end
  begin
     id 21 
     name lhand
     direction 1 -4.48978e-011 -2.82725e-026   
     length 0.523208   
     axis 1.80403e-014 90 90   XYZ
    dof rx rz
    limits (-90.0 90.0)
           (-45.0 45.0)
  end
  begin
     id 22 
     name lfingers
     direction 1 -4.48977e-011 -5.6545e-026   
     length 0.421824   
     axis 3.60806e-014 90 90   XYZ
    dof rx
    limits (0.0 90.0)
  end
  begin
     id 23
     name lthumb
     direction 0.707107 -6.34962e-011 0.707107   
     length 0.605657   
     axis -90 45 2.85299e-015   XYZ
    dof rx rz
    limits (-45.0 45.0)
           (-45.0 45.0)
  end
  begin
     id 24 
     name rclavicle
     direction -0.957247 0.24311 0.156766   
     length 3.12406  
     axis 0 0 0   XYZ 
    dof ry rz
    limits (-10.0 20.0)
           (-20.0 0.0)
  end
  begin
     id 25 
     name rhumerus
     direction -1 -4.48964e-011 -1.70632e-027  
     length 4.61969   
     axis 180 30 90   XYZ
    dof rx ry rz
    limits (-90.0 60.0)
           (-90.0 90.0)
           (-90.0 90.0)
  end
  begin
     id 26 
     name rradius
     direction -1 -4.48966e-011 -6.60395e-027   
     length 3.09382   
     axis 180 30 90   XYZ
    dof rx
    limits (-10.0 170.0)
  end
  begin
     id 27 
     name rwrist
     direction -1 -4.48963e-011 -1.41363e-026   
     length 1.54691   
     axis 1.07133e-014 -90 -90   XYZ
    dof ry
    limits (-180.0 0.0)
  end
  begin
     id 28
     name rhand
     direction -1 -4.49013e-011 -2.82725e-026   
     length 0.500896   
     axis 1.80403e-014 -90 -90   XYZ
    dof rx rz
    limits (-90.0 90.0)
           (-45.0 45.0)
  end
  begin
     id 29
     name rfingers
     direction -1 -4.48902e-011 -5.6545e-026   
     length 0.403835   
     axis 3.60806e-014 -90 -90   XYZ
    dof rx
    limits (0.0 90.0)
  end
  begin
     id 30
     name rthumb
     direction -0.707107 -6.34953e-011 0.707107   
     length 0.579829   
     axis -90 -45 -2.85299e-015   XYZ
    dof rx rz
    limits (-45.0 45.0)
           (-45.0 45.0)
  end
:hierarchy
  begin
    root lhipjoint rhipjoint lowerback
    lhipjoint lfemur
    lfemur ltibia
    ltibia lfoot
    lfoot ltoes
    rhipjoint rfemur
    rfemur rtibia
    rtibia rfoot
    rfoot rtoes
    lowerback upperback
    upperback thorax
    thorax lowerneck lclavicle rclavicle
    lowerneck upperneck
    upperneck head
    lclavicle lhumerus
    lhumerus lradius
    lradius lwrist
    lwrist lhand lthumb
    lhand lfingers
    rclavicle rhumerus
    rhumerus rradius
    rradius rwrist
    rwrist rhand rthumb
    rhand rfingers
  end

#!OML:ASF E:\madness\Project 1\Capture day 1\Session 1\Female1.ASF
:FULLY-SPECIFIED
:DEGREES
1439
root 20.0774 16.2103 -2.51213 -349.579 -116.026 358.267
lowerback -5.74042 -0.200095 -2.07025
upperback -4.54473 -0.341253 0.576789
thorax -1.44923 -0.182648 1.74069
lowerneck 3.05174 11.9728 7.24024
upperneck 17.9172 16.8479 -9.13579
head 6.35369 7.85173 -3.15755
rclavicle 8.82728e-015 5.36719e-015
rhumerus -61.3295 -15.4526 -60.0577
rradius 62.797
rwrist 3.3902
rhand -14.6657 -38.2547
rfingers 7.12502
rthumb 11.4871 -67.92
lclavicle 8.82728e-015 5.36719e-015
lhumerus -57.9677 4.05843 88.9988
lradius 78.2724
lwrist 1.37005
lhand -40.8571 -14.1929
lfingers 7.12502
lthumb -13.7939 15.3298
rfemur -10.7 13.8913 21.266
rtibia 18.3252
rfoot -16.8613 -11.8596
rtoes 13.451
lfemur -13.9473 -16.8913 -9.72903
ltibia 18.7286
lfoot -21.5917 40.1421
ltoes 37.9077
1440
root 20.0732 16.2123 -2.5118 -349.299 -115.602 358.127
lowerback -5.87175 -0.162649 -2.06357
upperback -4.61519 -0.294299 0.547071
thorax -1.45156 -0.16109 1.70821
lowerneck 3.16397 12.2041 7.42123
upperneck 17.6966 17.1655 -9.11113
head 6.30805 8.03707 -3.15826
rclavicle -3.926e-014 -5.96354e-015
rhumerus -61.3001 -15.5606 -60.0551
rradius 62.5922
rwrist 3.3092
rhand -15.7165 -40.0145
rfingers 7.12502
rthumb 10.4737 -69.7336
lclavicle -3.926e-014 -5.96354e-015
lhumerus -58.0213 4.09923 89.0132
lradius 78.2026
lwrist 1.1129
lhand -40.4782 -10.1286
lfingers 7.12502
lthumb -13.4287 19.4185
rfemur -10.7857 13.4454 21.2322
rtibia 18.2945
rfoot -16.9296 -11.844
rtoes 13.3519
lfemur -14.2039 -16.9153 -9.70619
ltibia 18.6862
lfoot -20.873 40.0725
ltoes 37.3953
1441
root 20.0809 16.2139 -2.5114 -348.99 -114.972 357.97
lowerback -5.85722 -0.209158 -2.14027
upperback -4.71286 -0.358411 0.540343
thorax -1.5579 -0.191119 1.74202
lowerneck 3.03889 12.1813 7.17005
upperneck 17.9174 17.1208 -8.95897
head 6.36008 7.99524 -3.06811
rclavicle 2.31646e-014 -2.78299e-015
rhumerus -61.2203 -15.7283 -60.0511
rradius 62.3336
rwrist 3.4384
rhand -15.9328 -40.4931
rfingers 7.12502
rthumb 10.265 -70.2227
lclavicle 2.31646e-014 -2.78299e-015
lhumerus -58.1601 4.17114 89.0193
lradius 78.3046
lwrist 0.946984
lhand -39.9347 -7.74938
lfingers 7.12502
lthumb -12.9048 21.8316
rfemur -10.8927 13.1826 21.2312
rtibia 18.2196
rfoot -16.9938 -12.1435
rtoes 13.6854
lfemur -14.6491 -17.0233 -9.57335
ltibia 18.7175
lfoot -20.1437 39.8574
ltoes 37.1682
1442
root 20.0577 16.2089 -2.51608 -349.618 -114.935 358.146
lowerback -5.73605 -0.0625381 -2.02965
upperback -4.51417 -0.155796 0.5336
thorax -1.42839 -0.0901259 1.68146
lowerneck 2.968 12.1612 7.04848
upperneck 18.1067 17.0895 -8.87593
head 6.41189 7.96698 -3.0204
rclavicle 1.2188e-014 -3.57812e-015
rhumerus -61.1336 -15.7216 -60.1359
rradius 62.1294
rwrist 3.48025
rhand -15.7641 -40.3965
rfingers 7.12502
rthumb 10.4277 -70.1179
lclavicle 1.2188e-014 -3.57812e-015
lhumerus -58.2384 4.18826 89.0112
lradius 78.3568
lwrist 0.988427
lhand -40.0307 -9.77793
lfingers 7.12502
lthumb -12.9974 19.7972
rfemur -10.2085 12.9707 21.4379
rtibia 18.084
rfoot -16.9914 -11.9964
rtoes 13.311
lfemur -14.0665 -17.4784 -9.65817
ltibia 18.7948
lfoot -20.9465 39.8964
ltoes 37.6235
1443
root 20.0416 16.2036 -2.51931 -350.03 -114.622 358.315
lowerback -5.75704 -0.0173987 -1.89578
upperback -4.35309 -0.0905913 0.548179
thorax -1.25251 -0.0597589 1.62371
lowerneck 2.70074 12.1263 6.92492
upperneck 18.4464 17.0483 -8.82441
head 6.54677 7.91951 -2.96726
rclavicle -2.35808e-014 -1.11319e-014
rhumerus -60.9632 -15.7116 -60.2456
rradius 61.9263
rwrist 3.42941
rhand -15.5064 -39.324
rfingers 7.12502
rthumb 10.6763 -69.0327
lclavicle -2.35808e-014 -1.11319e-014
lhumerus -58.1415 4.23714 88.9897
lradius 78.352
lwrist 1.12991
lhand -40.8166 -13.7329
lfingers 7.12502
lthumb -13.7549 15.7925
rfemur -9.74796 12.7696 21.6338
rtibia 17.953
rfoot -17.0249 -12.1189
rtoes 12.965
lfemur -13.8232 -17.7505 -9.64263
ltibia 18.8747
lfoot -20.9346 39.7348
ltoes 37.2693
1444
root 20.0368 16.2036 -2.52385 -350.09 -114.227 358.423
lowerback -5.89761 0.00923796 -1.81654
upperback -4.32464 -0.0551922 0.54691
thorax -1.14631 -0.0448845 1.57939
lowerneck 2.47834 12.1954 6.87965
upperneck 18.5747 17.1477 -8.77868
head 6.62655 7.95801 -2.92051
rclavicle 1.16227e-014 -2.38542e-015
rhumerus -60.8592 -15.7317 -60.3614
rradius 61.7785
rwrist 3.50146
rhand -15.3543 -38.9582
rfingers 7.12502
rthumb 10.823 -68.6593
lclavicle 1.16227e-014 -2.38542e-015
lhumerus -58.1068 4.24111 88.9947
lradius 78.3308
lwrist 1.15467
lhand -41.2438 -16.0506
lfingers 7.12502
lthumb -14.1666 13.4464
rfemur -9.6406 12.6519 21.7422
rtibia 17.8156
rfoot -17.0187 -12.3628
rtoes 12.5184
lfemur -13.982 -17.9188 -9.51569
ltibia 18.947
lfoot -20.7008 39.6316
ltoes 36.8117
